<svg width="42" height="42" viewBox="0 0 42 42" fill="none" xmlns="http://www.w3.org/2000/svg">
<circle cx="21" cy="21" r="21" fill="white"/>
<path d="M17.5 21.5L19.0089 23.0089C19.3526 23.3526 19.5245 23.5245 19.7198 23.5822C19.8914 23.6328 20.0749 23.6245 20.2412 23.5585C20.4305 23.4834 20.5861 23.2967 20.8973 22.9232L25 18M25.3287 13.7586C26.0676 13.7796 26.8001 14.0721 27.364 14.636C27.9278 15.1999 28.2203 15.9324 28.2414 16.6712C28.2623 17.4023 28.2727 17.7679 28.2942 17.853C28.3401 18.0351 28.2867 17.9063 28.383 18.0675C28.428 18.1429 28.6792 18.4088 29.1814 18.9405C29.6889 19.4778 30 20.2026 30 21C30 21.7974 29.6889 22.5222 29.1814 23.0595C28.6792 23.5912 28.428 23.8571 28.383 23.9325C28.2867 24.0937 28.3401 23.9649 28.2942 24.147C28.2727 24.2321 28.2623 24.5977 28.2414 25.3288C28.2203 26.0676 27.9278 26.8001 27.364 27.364C26.8001 27.9279 26.0676 28.2204 25.3287 28.2414C24.5976 28.2623 24.2321 28.2727 24.147 28.2942C23.9649 28.3401 24.0937 28.2868 23.9325 28.3831C23.8571 28.4281 23.5912 28.6792 23.0595 29.1814C22.5222 29.6889 21.7974 30 21 30C20.2026 30 19.4778 29.6889 18.9405 29.1814C18.4087 28.6792 18.1429 28.4281 18.0675 28.3831C17.9063 28.2868 18.0351 28.3401 17.853 28.2942C17.7679 28.2727 17.4022 28.2623 16.6712 28.2414C15.9324 28.2204 15.1999 27.9279 14.636 27.364C14.0721 26.8001 13.7796 26.0676 13.7585 25.3287C13.7377 24.5976 13.7272 24.2321 13.7058 24.147C13.6599 23.9649 13.7132 24.0937 13.6169 23.9324C13.5719 23.8571 13.3208 23.5912 12.8186 23.0595C12.3111 22.5222 12 21.7974 12 21C12 20.2026 12.3111 19.4778 12.8186 18.9405C13.3208 18.4088 13.5719 18.1429 13.6169 18.0676C13.7132 17.9063 13.6599 18.0351 13.7058 17.853C13.7272 17.7679 13.7377 17.4023 13.7585 16.6713C13.7796 15.9324 14.0721 15.1999 14.636 14.636C15.1999 14.0721 15.9324 13.7796 16.6712 13.7586C17.4023 13.7377 17.7679 13.7273 17.853 13.7058C18.0351 13.6599 17.9063 13.7132 18.0675 13.6169C18.1429 13.5719 18.4088 13.3208 18.9405 12.8186C19.4778 12.3111 20.2026 12 21 12C21.7974 12 22.5222 12.3111 23.0595 12.8186C23.5913 13.3208 23.8571 13.5719 23.9325 13.6169C24.0937 13.7132 23.9649 13.6599 24.147 13.7058C24.2321 13.7273 24.5976 13.7377 25.3287 13.7586Z" stroke="#FF6600" stroke-width="2" stroke-linecap="round" stroke-linejoin="round"/>
</svg>
