<svg width="49" height="49" viewBox="0 0 49 49" fill="none" xmlns="http://www.w3.org/2000/svg">
<path d="M42.875 10.2083L38.7917 24.5H15.0608M40.8333 32.6667H16.3333L12.25 6.125H6.125M23.4792 14.2917L27.5625 18.375M27.5625 18.375L31.6458 14.2917M27.5625 18.375V6.125M18.375 40.8333C18.375 41.9609 17.4609 42.875 16.3333 42.875C15.2058 42.875 14.2917 41.9609 14.2917 40.8333C14.2917 39.7058 15.2058 38.7917 16.3333 38.7917C17.4609 38.7917 18.375 39.7058 18.375 40.8333ZM40.8333 40.8333C40.8333 41.9609 39.9192 42.875 38.7917 42.875C37.6641 42.875 36.75 41.9609 36.75 40.8333C36.75 39.7058 37.6641 38.7917 38.7917 38.7917C39.9192 38.7917 40.8333 39.7058 40.8333 40.8333Z" stroke="white" stroke-width="2" stroke-linecap="round" stroke-linejoin="round"/>
</svg>
