<svg width="213" height="213" viewBox="0 0 213 213" fill="none" xmlns="http://www.w3.org/2000/svg">
<path d="M26.625 106.5H186.375M106.5 71V106.5M57.6875 106.5V142M155.312 106.5V142M89.6375 71H123.362C128.333 71 130.818 71 132.717 70.0327C134.387 69.1818 135.744 67.8241 136.595 66.1542C137.562 64.2557 137.562 61.7705 137.562 56.8V40.825C137.562 35.8545 137.562 33.3693 136.595 31.4708C135.744 29.8009 134.387 28.4432 132.717 27.5923C130.818 26.625 128.333 26.625 123.362 26.625H89.6375C84.667 26.625 82.1818 26.625 80.2833 27.5923C78.6134 28.4432 77.2557 29.8009 76.4048 31.4708C75.4375 33.3693 75.4375 35.8545 75.4375 40.825V56.8C75.4375 61.7705 75.4375 64.2557 76.4048 66.1542C77.2557 67.8241 78.6134 69.1818 80.2833 70.0327C82.1818 71 84.667 71 89.6375 71ZM138.45 186.375H172.175C177.145 186.375 179.631 186.375 181.529 185.408C183.199 184.557 184.557 183.199 185.408 181.529C186.375 179.631 186.375 177.145 186.375 172.175V156.2C186.375 151.23 186.375 148.744 185.408 146.846C184.557 145.176 183.199 143.818 181.529 142.967C179.631 142 177.145 142 172.175 142H138.45C133.48 142 130.994 142 129.096 142.967C127.426 143.818 126.068 145.176 125.217 146.846C124.25 148.744 124.25 151.23 124.25 156.2V172.175C124.25 177.145 124.25 179.631 125.217 181.529C126.068 183.199 127.426 184.557 129.096 185.408C130.994 186.375 133.48 186.375 138.45 186.375ZM40.825 186.375H74.55C79.5205 186.375 82.0057 186.375 83.9042 185.408C85.5741 184.557 86.9318 183.199 87.7827 181.529C88.75 179.631 88.75 177.145 88.75 172.175V156.2C88.75 151.23 88.75 148.744 87.7827 146.846C86.9318 145.176 85.5741 143.818 83.9042 142.967C82.0057 142 79.5205 142 74.55 142H40.825C35.8545 142 33.3693 142 31.4708 142.967C29.8009 143.818 28.4432 145.176 27.5923 146.846C26.625 148.744 26.625 151.23 26.625 156.2V172.175C26.625 177.145 26.625 179.631 27.5923 181.529C28.4432 183.199 29.8009 184.557 31.4708 185.408C33.3693 186.375 35.8545 186.375 40.825 186.375Z" stroke="#F0F0F0" stroke-width="8" stroke-linecap="round" stroke-linejoin="round"/>
</svg>
