<svg width="20" height="20" viewBox="0 0 20 20" fill="none" xmlns="http://www.w3.org/2000/svg">
<path d="M11.7084 4.99996C12.5223 5.15876 13.2704 5.55684 13.8568 6.14324C14.4432 6.72964 14.8412 7.47768 15 8.29163M11.7084 1.66663C13.3994 1.85449 14.9764 2.61177 16.1802 3.81413C17.3841 5.01649 18.1434 6.59247 18.3334 8.28329M15.4167 17.5C8.28299 17.5 2.5 11.717 2.5 4.58329C2.5 4.26144 2.51177 3.94234 2.53491 3.6264C2.56146 3.26381 2.57474 3.08251 2.66975 2.91749C2.74845 2.7808 2.88792 2.65117 3.02998 2.58267C3.20151 2.49996 3.40157 2.49996 3.80168 2.49996H6.14943C6.4859 2.49996 6.65413 2.49996 6.79835 2.55534C6.92575 2.60425 7.03918 2.6837 7.12868 2.78671C7.23001 2.90332 7.2875 3.06143 7.40249 3.37764L8.37426 6.05C8.50804 6.4179 8.57493 6.60185 8.56357 6.77637C8.55356 6.93027 8.50104 7.07836 8.41186 7.20418C8.31072 7.34686 8.14288 7.44757 7.80719 7.64898L6.66667 8.33329C7.66825 10.5407 9.45845 12.3332 11.6667 13.3333L12.351 12.1928C12.5524 11.8571 12.6531 11.6892 12.7958 11.5881C12.9216 11.4989 13.0697 11.4464 13.2236 11.4364C13.3981 11.425 13.5821 11.4919 13.95 11.6257L16.6223 12.5975C16.9385 12.7125 17.0966 12.7699 17.2133 12.8713C17.3163 12.9608 17.3957 13.0742 17.4446 13.2016C17.5 13.3458 17.5 13.5141 17.5 13.8505V16.1983C17.5 16.5984 17.5 16.7984 17.4173 16.97C17.3488 17.112 17.2192 17.2515 17.0825 17.3302C16.9174 17.4252 16.7362 17.4385 16.3736 17.4651C16.0576 17.4882 15.7385 17.5 15.4167 17.5Z" stroke="white" stroke-width="2" stroke-linecap="round" stroke-linejoin="round"/>
</svg>
