<svg width="236" height="236" viewBox="0 0 236 236" fill="none" xmlns="http://www.w3.org/2000/svg">
<path d="M147.5 118C147.5 134.292 134.292 147.5 118 147.5C101.708 147.5 88.5 134.292 88.5 118C88.5 101.708 101.708 88.5 118 88.5C134.292 88.5 147.5 101.708 147.5 118Z" stroke="#F0F0F0" stroke-width="8" stroke-linecap="round" stroke-linejoin="round"/>
<path d="M126.895 30.0905C124.872 29.5 122.581 29.5 118 29.5C113.419 29.5 111.128 29.5 109.105 30.0905C106.143 30.9547 103.526 32.7261 101.624 35.1552C100.324 36.8148 99.4734 38.9416 97.772 43.195C95.3262 49.3094 88.5387 52.4579 82.291 50.3762L76.6782 48.506C72.6968 47.1788 70.7061 46.5152 68.7543 46.4015C65.8872 46.2345 63.0337 46.9081 60.5439 48.3397C58.8491 49.3143 57.3653 50.7981 54.3977 53.7657C51.2436 56.9197 49.6666 58.4968 48.6647 60.2969C47.1928 62.9416 46.5702 65.9751 46.8813 68.9858C47.093 71.0351 47.9213 73.1058 49.5779 77.2473C52.1722 83.7331 49.6764 91.143 43.6867 94.7376L40.9579 96.3753C36.7797 98.8822 34.6906 100.136 33.1732 101.861C31.8303 103.389 30.8177 105.177 30.1991 107.114C29.5 109.303 29.5 111.764 29.5 116.685C29.5 122.512 29.5 125.426 30.4304 127.92C31.2526 130.123 32.5898 132.098 34.3305 133.68C36.3005 135.47 38.9788 136.542 44.3352 138.684C49.8091 140.874 52.6276 146.951 50.7632 152.544L48.6476 158.891C47.1822 163.287 46.4495 165.485 46.3828 167.645C46.3027 170.241 46.9098 172.813 48.1427 175.1C49.1682 177.001 50.8066 178.64 54.0833 181.917C57.3601 185.193 58.9985 186.832 60.9003 187.857C63.187 189.09 65.7588 189.697 68.3554 189.617C70.5151 189.551 72.7132 188.818 77.1095 187.352L82.2914 185.625C88.5387 183.543 95.3263 186.691 97.772 192.805C99.4734 197.058 100.324 199.185 101.624 200.845C103.526 203.274 106.143 205.045 109.105 205.91C111.128 206.5 113.419 206.5 118 206.5C122.581 206.5 124.872 206.5 126.895 205.91C129.857 205.045 132.474 203.274 134.376 200.845C135.676 199.185 136.527 197.058 138.228 192.805C140.674 186.691 147.461 183.543 153.708 185.626L158.886 187.353C163.283 188.819 165.481 189.551 167.64 189.618C170.237 189.698 172.809 189.091 175.096 187.858C176.997 186.833 178.636 185.194 181.913 181.917C185.189 178.641 186.828 177.002 187.853 175.1C189.086 172.814 189.693 170.242 189.613 167.645C189.546 165.486 188.814 163.287 187.348 158.891L185.234 152.548C183.369 146.953 186.189 140.874 191.665 138.684C197.021 136.542 199.699 135.47 201.669 133.68C203.41 132.098 204.747 130.123 205.57 127.92C206.5 125.426 206.5 122.512 206.5 116.685C206.5 111.764 206.5 109.303 205.801 107.114C205.182 105.177 204.17 103.389 202.827 101.861C201.309 100.136 199.22 98.8822 195.042 96.3753L192.31 94.7359C186.32 91.142 183.824 83.7322 186.418 77.2465C188.075 73.1052 188.903 71.0343 189.115 68.9851C189.426 65.9744 188.803 62.9409 187.331 60.2961C186.329 58.496 184.752 56.919 181.598 53.7649C178.631 50.7974 177.147 49.3135 175.452 48.339C172.962 46.9074 170.109 46.2337 167.242 46.4008C165.29 46.5145 163.299 47.1781 159.318 48.5052L153.709 50.3749C147.461 52.4573 140.674 49.3092 138.228 43.195C136.527 38.9415 135.676 36.8148 134.376 35.1552C132.474 32.7261 129.857 30.9547 126.895 30.0905Z" stroke="#F0F0F0" stroke-width="8" stroke-linecap="round" stroke-linejoin="round"/>
</svg>
