<svg width="52" height="52" viewBox="0 0 52 52" fill="none" xmlns="http://www.w3.org/2000/svg">
<path d="M32.5 26C32.5 29.5899 29.5899 32.5 26 32.5C22.4101 32.5 19.5 29.5899 19.5 26C19.5 22.4101 22.4101 19.5 26 19.5C29.5899 19.5 32.5 22.4101 32.5 26Z" stroke="white" stroke-width="2" stroke-linecap="round" stroke-linejoin="round"/>
<path d="M27.96 6.6301C27.5141 6.5 27.0094 6.5 26 6.5C24.9906 6.5 24.4859 6.5 24.04 6.6301C23.3874 6.82053 22.8109 7.21083 22.3917 7.74607C22.1053 8.11173 21.9179 8.58035 21.543 9.51755C21.0041 10.8648 19.5085 11.5585 18.1319 11.0998L16.8952 10.6878C16.0179 10.3953 15.5793 10.2491 15.1493 10.2241C14.5175 10.1873 13.8888 10.3357 13.3402 10.6511C12.9667 10.8659 12.6398 11.1928 11.9859 11.8467C11.291 12.5416 10.9435 12.8891 10.7227 13.2858C10.3984 13.8685 10.2612 14.5369 10.3298 15.2003C10.3764 15.6518 10.5589 16.1081 10.9239 17.0206C11.4956 18.4497 10.9456 20.0824 9.62589 20.8744L9.02462 21.2352C8.10401 21.7876 7.6437 22.0638 7.30934 22.444C7.01346 22.7805 6.79035 23.1746 6.65404 23.6014C6.5 24.0838 6.5 24.6259 6.5 25.7102C6.5 26.9942 6.5 27.6362 6.70501 28.1857C6.88616 28.6712 7.1808 29.1064 7.56435 29.4549C7.99841 29.8494 8.58856 30.0854 9.76877 30.5575C10.9749 31.04 11.5959 32.3789 11.1851 33.6113L10.719 35.0098C10.3961 35.9784 10.2346 36.4628 10.2199 36.9386C10.2023 37.5108 10.3361 38.0774 10.6077 38.5813C10.8337 39.0003 11.1947 39.3614 11.9167 40.0833C12.6387 40.8053 12.9997 41.1663 13.4187 41.3923C13.9226 41.6639 14.4892 41.7977 15.0614 41.7801C15.5372 41.7654 16.0216 41.6039 16.9902 41.281L18.132 40.9004C19.5085 40.4416 21.0041 41.1353 21.543 42.4825C21.9179 43.4197 22.1053 43.8883 22.3917 44.2539C22.8109 44.7892 23.3874 45.1795 24.04 45.3699C24.4859 45.5 24.9906 45.5 26 45.5C27.0094 45.5 27.5141 45.5 27.96 45.3699C28.6126 45.1795 29.1891 44.7892 29.6083 44.2539C29.8947 43.8883 30.0821 43.4197 30.457 42.4825C30.9959 41.1353 32.4915 40.4417 33.8679 40.9007L35.0089 41.2812C35.9776 41.6041 36.4619 41.7655 36.9377 41.7802C37.5099 41.7979 38.0765 41.6641 38.5804 41.3924C38.9994 41.1665 39.3605 40.8055 40.0824 40.0835C40.8044 39.3615 41.1654 39.0005 41.3914 38.5815C41.663 38.0776 41.7968 37.5109 41.7792 36.9388C41.7645 36.463 41.603 35.9785 41.2801 35.0099L40.8143 33.6123C40.4033 32.3795 41.0246 31.04 42.2312 30.5575C43.4114 30.0854 44.0016 29.8494 44.4357 29.4549C44.8192 29.1064 45.1138 28.6712 45.295 28.1857C45.5 27.6362 45.5 26.9942 45.5 25.7102C45.5 24.6259 45.5 24.0838 45.346 23.6014C45.2096 23.1746 44.9865 22.7805 44.6907 22.444C44.3563 22.0638 43.896 21.7876 42.9754 21.2352L42.3733 20.874C41.0535 20.0821 40.5035 18.4495 41.0752 17.0204C41.4402 16.1079 41.6227 15.6516 41.6693 15.2001C41.7379 14.5367 41.6007 13.8683 41.2764 13.2856C41.0556 12.889 40.7081 12.5415 40.0132 11.8465C39.3593 11.1927 39.0324 10.8657 38.6589 10.651C38.1103 10.3355 37.4816 10.1871 36.8499 10.2239C36.4198 10.249 35.9812 10.3952 35.1039 10.6876L33.868 11.0996C32.4915 11.5584 30.9959 10.8647 30.457 9.51755C30.0821 8.58034 29.8947 8.11173 29.6083 7.74607C29.1891 7.21083 28.6126 6.82053 27.96 6.6301Z" stroke="white" stroke-width="2" stroke-linecap="round" stroke-linejoin="round"/>
</svg>
