<svg width="211" height="211" viewBox="0 0 211 211" fill="none" xmlns="http://www.w3.org/2000/svg">
<path d="M184.625 43.9583L167.042 105.5H64.8536M175.833 140.667H70.3333L52.75 26.375H26.375M101.104 61.5417L118.688 79.125M118.688 79.125L136.271 61.5417M118.688 79.125V26.375M79.125 175.833C79.125 180.689 75.1888 184.625 70.3333 184.625C65.4778 184.625 61.5417 180.689 61.5417 175.833C61.5417 170.978 65.4778 167.042 70.3333 167.042C75.1888 167.042 79.125 170.978 79.125 175.833ZM175.833 175.833C175.833 180.689 171.897 184.625 167.042 184.625C162.186 184.625 158.25 180.689 158.25 175.833C158.25 170.978 162.186 167.042 167.042 167.042C171.897 167.042 175.833 170.978 175.833 175.833Z" stroke="#F0F0F0" stroke-width="8" stroke-linecap="round" stroke-linejoin="round"/>
</svg>
