<svg width="248" height="248" viewBox="0 0 248 248" fill="none" xmlns="http://www.w3.org/2000/svg">
<path d="M156 35H133.266C115.905 35 107.224 35 100.593 38.3788C94.7596 41.3509 90.0172 46.0933 87.0451 51.9263C83.6663 58.5576 83.6663 67.2384 83.6663 84.6V130.067C83.6663 147.428 83.6663 156.109 87.0451 162.74C90.0172 168.573 94.7596 173.316 100.593 176.288C107.224 179.667 115.905 179.667 133.266 179.667H158.066C175.428 179.667 184.109 179.667 190.74 176.288C196.573 173.316 201.315 168.573 204.288 162.74C207.666 156.109 207.666 147.428 207.666 130.067V89.25L156 35ZM156 35V63.9333C156 75.5078 156 81.295 158.252 85.7158C160.234 89.6045 163.395 92.7661 167.284 94.7475C171.705 97 177.492 97 189.066 97H207.666M83.6663 66H73.333C56.2122 66 42.333 79.8792 42.333 97V190C42.333 207.121 56.2122 221 73.333 221H145.666C162.787 221 176.666 207.121 176.666 190V179.667" stroke="#F0F0F0" stroke-width="8" stroke-linecap="round" stroke-linejoin="round"/>
</svg>
